<svg xmlns="http://www.w3.org/2000/svg" viewBox="0 0 32 32" role="img" aria-label="NWS">
  <circle cx="16" cy="16" r="16" fill="#003087"/>
  <path fill="#fff" d="M11 19.5c0-2.8 2.2-5 5-5 .9 0 1.7.2 2.4.7-.5-.8-1.4-1.2-2.4-1.2-1.6 0-2.8 1.2-2.8 2.8 0 1.6 1.2 2.8 2.8 2.8.7 0 1.3-.2 1.7-.6-.4 1.2-1.5 2.1-2.9 2.1-2 0-3.8-1.5-3.8-3.6z"/>
  <path fill="#FFD700" stroke="#003087" stroke-width=".4" d="m21.2 11.8-2.2 3.8h4.4l-2.2 3.8 2.2-3.8h-4.4l2.2-3.8z"/>
  <text x="16" y="27.5" text-anchor="middle" fill="#fff" font-family="Arial,Helvetica,sans-serif" font-size="6.5" font-weight="700">NWS</text>
</svg>
