<svg xmlns="http://www.w3.org/2000/svg" viewBox="0 0 32 32" role="img" aria-label="USGS">
  <path fill="#3dd68c" d="M4 22c3-1.4 5.5-4 8.5-4 2.5 0 4 2 6.5 2 2.2 0 4.2-1.6 6-3.2v2.4c-2 1.4-4 2.8-6 2.8-2.5 0-4-1.8-6.5-1.8-2.3 0-4.8 1.4-8.5 2.6V22z"/>
  <path fill="#3dd68c" d="M4 15.5c3-1.4 5.5-4 8.5-4 2.5 0 4 2 6.5 2 2.2 0 4.2-1.6 6-3.2v2.4c-2 1.4-4 2.8-6 2.8-2.5 0-4-1.8-6.5-1.8-2.3 0-4.8 1.4-8.5 2.6v-1.8z"/>
  <path fill="#3dd68c" d="M4 9c3-1.4 5.5-4 8.5-4 2.5 0 4 2 6.5 2 2.2 0 4.2-1.6 6-3.2v2.4c-2 1.4-4 2.8-6 2.8-2.5 0-4-1.8-6.5-1.8-2.3 0-4.8 1.4-8.5 2.6V9z"/>
</svg>
